<svg width="15" height="15" viewBox="0 0 15 15" fill="none" xmlns="http://www.w3.org/2000/svg">
<path d="M12.6562 7.34375C13.1146 7.34375 13.5104 7.51042 13.8438 7.84375C14.1771 8.15625 14.3438 8.54167 14.3438 9C14.3438 9.45833 14.1771 9.85417 13.8438 10.1875C13.5104 10.5 13.1146 10.6562 12.6562 10.6562H11.6562V13.3438C11.6562 13.6979 11.5208 14.0104 11.25 14.2812C11 14.5312 10.6979 14.6562 10.3438 14.6562H7.8125V13.6562C7.8125 13.1562 7.63542 12.7396 7.28125 12.4062C6.92708 12.0521 6.5 11.875 6 11.875C5.5 11.875 5.07292 12.0521 4.71875 12.4062C4.36458 12.7396 4.1875 13.1562 4.1875 13.6562V14.6562H1.65625C1.30208 14.6562 0.989583 14.5312 0.71875 14.2812C0.46875 14.0104 0.34375 13.6979 0.34375 13.3438V10.8125H1.34375C1.84375 10.8125 2.26042 10.6354 2.59375 10.2812C2.94792 9.92708 3.125 9.5 3.125 9C3.125 8.5 2.94792 8.07292 2.59375 7.71875C2.26042 7.36458 1.84375 7.1875 1.34375 7.1875H0.34375V4.65625C0.34375 4.30208 0.46875 4 0.71875 3.75C0.989583 3.47917 1.30208 3.34375 1.65625 3.34375H4.34375V2.34375C4.34375 1.88542 4.5 1.48958 4.8125 1.15625C5.14583 0.822917 5.54167 0.65625 6 0.65625C6.45833 0.65625 6.84375 0.822917 7.15625 1.15625C7.48958 1.48958 7.65625 1.88542 7.65625 2.34375V3.34375H10.3438C10.6979 3.34375 11 3.47917 11.25 3.75C11.5208 4 11.6562 4.30208 11.6562 4.65625V7.34375H12.6562Z" fill="black"/>
</svg>
