<svg width="15" height="14" viewBox="0 0 15 14" fill="none" xmlns="http://www.w3.org/2000/svg">
<path d="M10.8438 7.65625V6.34375H8.15625V3.65625H6.84375V6.34375H4.15625V7.65625H6.84375V10.3438H8.15625V7.65625H10.8438ZM2.78125 2.3125C4.09375 1 5.66667 0.34375 7.5 0.34375C9.33333 0.34375 10.8958 1 12.1875 2.3125C13.5 3.60417 14.1562 5.16667 14.1562 7C14.1562 8.83333 13.5 10.4062 12.1875 11.7188C10.8958 13.0104 9.33333 13.6562 7.5 13.6562C5.66667 13.6562 4.09375 13.0104 2.78125 11.7188C1.48958 10.4062 0.84375 8.83333 0.84375 7C0.84375 5.16667 1.48958 3.60417 2.78125 2.3125Z" fill="black"/>
</svg>
