<svg width="12" height="12" viewBox="0 0 12 12" fill="none" xmlns="http://www.w3.org/2000/svg">
<path d="M8 8.65625H12V10.6562C12 11.0104 11.8646 11.3229 11.5938 11.5938C11.3229 11.8646 11.0104 12 10.6562 12H1.34375C0.989583 12 0.677083 11.8646 0.40625 11.5938C0.135417 11.3229 0 11.0104 0 10.6562V8.65625H4C4 9.19792 4.19792 9.66667 4.59375 10.0625C4.98958 10.4583 5.45833 10.6562 6 10.6562C6.54167 10.6562 7.01042 10.4583 7.40625 10.0625C7.80208 9.66667 8 9.19792 8 8.65625ZM10.6562 4V1.34375H1.34375V4H4C4 4.54167 4.19792 5.01042 4.59375 5.40625C4.98958 5.80208 5.45833 6 6 6C6.54167 6 7.01042 5.80208 7.40625 5.40625C7.80208 5.01042 8 4.54167 8 4H10.6562ZM10.6562 0C11.0104 0 11.3229 0.135417 11.5938 0.40625C11.8646 0.677083 12 0.989583 12 1.34375V6C12 6.35417 11.8646 6.66667 11.5938 6.9375C11.3229 7.20833 11.0104 7.34375 10.6562 7.34375H1.34375C0.989583 7.34375 0.677083 7.20833 0.40625 6.9375C0.135417 6.66667 0 6.35417 0 6V1.34375C0 0.989583 0.135417 0.677083 0.40625 0.40625C0.677083 0.135417 0.989583 0 1.34375 0H10.6562Z" fill="white"/>
</svg>
