<svg width="113" height="25" viewBox="0 0 113 25" fill="none" xmlns="http://www.w3.org/2000/svg">
<rect x="107" width="6" height="6" fill="#AE7AFF"/>
<rect x="103" y="4" width="6" height="6" fill="#E99898"/>
<g opacity="0.377858" filter="url(#filter0_b_728_1105)">
<rect x="107" y="4" width="2" height="2" fill="#0F0F0F"/>
</g>
<path fill-rule="evenodd" clip-rule="evenodd" d="M9.72781 15.4323C10.6238 15.5923 11.3838 16.0643 12.0078 16.8483C12.6318 17.6323 12.9438 18.5203 12.9438 19.5123C12.9438 20.3603 12.7238 21.1243 12.2838 21.8043C11.8438 22.4843 11.2078 23.0203 10.3758 23.4123C9.54381 23.8043 8.5758 24.0003 7.4718 24.0003H0.799805V7.32031H7.1598C8.2958 7.32031 9.2718 7.51231 10.0878 7.89631C10.9038 8.28031 11.5198 8.79631 11.9358 9.44431C12.3518 10.0923 12.5598 10.8163 12.5598 11.6163C12.5598 12.5763 12.3038 13.3763 11.7918 14.0163C11.2798 14.6563 10.5918 15.1283 9.72781 15.4323ZM3.5358 14.3283H6.9198C7.8158 14.3283 8.5158 14.1243 9.0198 13.7163C9.5238 13.3083 9.7758 12.7203 9.7758 11.9523C9.7758 11.2003 9.5238 10.6123 9.0198 10.1883C8.5158 9.76431 7.8158 9.55231 6.9198 9.55231H3.5358V14.3283ZM9.4158 21.0963C8.8878 21.5443 8.1598 21.7683 7.2318 21.7683H3.5358V16.5603H7.1358C8.0638 16.5603 8.8078 16.8003 9.3678 17.2803C9.9278 17.7603 10.2078 18.4083 10.2078 19.2243C10.2078 20.0243 9.9438 20.6483 9.4158 21.0963Z" fill="white"/>
<path d="M9.72781 15.4323L9.59504 15.055C9.42366 15.1153 9.31445 15.2835 9.32911 15.4646C9.34378 15.6457 9.47864 15.7941 9.65749 15.8261L9.72781 15.4323ZM0.799805 24.0003H0.399805C0.399805 24.2212 0.578891 24.4003 0.799805 24.4003L0.799805 24.0003ZM0.799805 7.32031V6.92031C0.578891 6.92031 0.399805 7.0994 0.399805 7.32031H0.799805ZM3.5358 14.3283H3.1358C3.1358 14.5492 3.31489 14.7283 3.5358 14.7283V14.3283ZM9.0198 13.7163L9.27148 14.0272L9.0198 13.7163ZM9.0198 10.1883L9.27731 9.88222V9.88222L9.0198 10.1883ZM3.5358 9.55231V9.15231C3.31489 9.15231 3.1358 9.3314 3.1358 9.55231H3.5358ZM9.4158 21.0963L9.15701 20.7913L9.4158 21.0963ZM3.5358 21.7683H3.1358C3.1358 21.9892 3.31489 22.1683 3.5358 22.1683V21.7683ZM3.5358 16.5603V16.1603C3.31489 16.1603 3.1358 16.3394 3.1358 16.5603H3.5358ZM9.3678 17.2803L9.10749 17.584L9.10749 17.584L9.3678 17.2803ZM12.3208 16.5992C11.6428 15.7474 10.7998 15.2174 9.79812 15.0385L9.65749 15.8261C10.4478 15.9672 11.1248 16.3813 11.6948 17.0974L12.3208 16.5992ZM13.3438 19.5123C13.3438 18.4288 13.0005 17.4532 12.3208 16.5992L11.6948 17.0974C12.2631 17.8114 12.5438 18.6118 12.5438 19.5123H13.3438ZM12.6196 22.0216C13.1035 21.2737 13.3438 20.4336 13.3438 19.5123H12.5438C12.5438 20.287 12.3441 20.9749 11.948 21.587L12.6196 22.0216ZM10.5463 23.7742C11.4364 23.3548 12.1338 22.7724 12.6196 22.0216L11.948 21.587C11.5538 22.1962 10.9792 22.6859 10.2053 23.0505L10.5463 23.7742ZM7.4718 24.4003C8.62311 24.4003 9.65135 24.1958 10.5463 23.7742L10.2053 23.0505C9.43626 23.4128 8.5285 23.6003 7.4718 23.6003V24.4003ZM0.799805 24.4003H7.4718V23.6003H0.799805V24.4003ZM0.399805 7.32031V24.0003H1.1998V7.32031H0.399805ZM7.1598 6.92031H0.799805V7.72031H7.1598V6.92031ZM10.2581 7.53438C9.37688 7.11968 8.33985 6.92031 7.1598 6.92031V7.72031C8.25176 7.72031 9.16673 7.90494 9.91749 8.25824L10.2581 7.53438ZM12.2724 9.22822C11.8093 8.50677 11.1303 7.94483 10.2581 7.53438L9.91749 8.25824C10.6773 8.61579 11.2303 9.08585 11.5992 9.66041L12.2724 9.22822ZM12.9598 11.6163C12.9598 10.7428 12.7315 9.94329 12.2724 9.22822L11.5992 9.66041C11.9721 10.2413 12.1598 10.8898 12.1598 11.6163H12.9598ZM12.1042 14.2662C12.6823 13.5435 12.9598 12.6509 12.9598 11.6163H12.1598C12.1598 12.5017 11.9253 13.2091 11.4795 13.7664L12.1042 14.2662ZM9.86057 15.8096C10.7866 15.4838 11.54 14.9713 12.1042 14.2662L11.4795 13.7664C11.0196 14.3413 10.397 14.7728 9.59504 15.055L9.86057 15.8096ZM6.9198 13.9283H3.5358V14.7283H6.9198V13.9283ZM8.76813 13.4054C8.35826 13.7372 7.7588 13.9283 6.9198 13.9283V14.7283C7.87281 14.7283 8.67335 14.5114 9.27148 14.0272L8.76813 13.4054ZM9.3758 11.9523C9.3758 12.6244 9.16061 13.0877 8.76813 13.4054L9.27148 14.0272C9.887 13.5289 10.1758 12.8162 10.1758 11.9523H9.3758ZM8.7623 10.4944C9.16255 10.8311 9.3758 11.2997 9.3758 11.9523H10.1758C10.1758 11.101 9.88506 10.3935 9.27731 9.88222L8.7623 10.4944ZM6.9198 9.95231C7.75556 9.95231 8.35271 10.1498 8.7623 10.4944L9.27731 9.88222C8.6789 9.3788 7.87605 9.15231 6.9198 9.15231V9.95231ZM3.5358 9.95231H6.9198V9.15231H3.5358V9.95231ZM3.9358 14.3283V9.55231H3.1358V14.3283H3.9358ZM7.2318 22.1683C8.22213 22.1683 9.05291 21.9288 9.6746 21.4013L9.15701 20.7913C8.7227 21.1598 8.09748 21.3683 7.2318 21.3683V22.1683ZM3.5358 22.1683H7.2318V21.3683H3.5358V22.1683ZM3.1358 16.5603V21.7683H3.9358V16.5603H3.1358ZM7.1358 16.1603H3.5358V16.9603H7.1358V16.1603ZM9.62812 16.9766C8.97842 16.4197 8.13389 16.1603 7.1358 16.1603V16.9603C7.99372 16.9603 8.63719 17.1809 9.10749 17.584L9.62812 16.9766ZM10.6078 19.2243C10.6078 18.3055 10.2869 17.5412 9.62812 16.9766L9.10749 17.584C9.56874 17.9794 9.80781 18.5111 9.80781 19.2243H10.6078ZM9.6746 21.4013C10.3066 20.8651 10.6078 20.1215 10.6078 19.2243H9.80781C9.80781 19.9271 9.58104 20.4315 9.15701 20.7913L9.6746 21.4013Z" fill="white"/>
<path d="M19.613 12.6961C20.013 12.0241 20.545 11.5001 21.209 11.1241C21.873 10.7481 22.661 10.5601 23.573 10.5601V13.3921H22.877C21.805 13.3921 20.993 13.6641 20.441 14.2081C19.889 14.7521 19.613 15.6961 19.613 17.0401V24.0001H16.877V10.7761H19.613V12.6961Z" fill="white" stroke="white" stroke-width="0.8" stroke-linejoin="round"/>
<path d="M39.0262 10.7764V24.0004H36.2902V22.4404C35.8582 22.9844 35.2942 23.4124 34.5982 23.7244C33.9022 24.0364 33.1622 24.1924 32.3782 24.1924C31.3382 24.1924 30.4062 23.9764 29.5822 23.5444C28.7582 23.1124 28.1102 22.4724 27.6382 21.6244C27.1662 20.7764 26.9302 19.7524 26.9302 18.5524V10.7764H29.6422V18.1444C29.6422 19.3284 29.9382 20.2364 30.5302 20.8684C31.1222 21.5004 31.9302 21.8164 32.9542 21.8164C33.9782 21.8164 34.7902 21.5004 35.3902 20.8684C35.9902 20.2364 36.2902 19.3284 36.2902 18.1444V10.7764H39.0262Z" fill="white" stroke="white" stroke-width="0.8" stroke-linejoin="round"/>
<path fill-rule="evenodd" clip-rule="evenodd" d="M43.4994 13.8002C42.9474 14.8242 42.6714 16.0002 42.6714 17.3282C42.6714 18.6562 42.9474 19.8442 43.4994 20.8922C44.0514 21.9402 44.8034 22.7562 45.7554 23.3402C46.7074 23.9242 47.7594 24.2162 48.9114 24.2162C49.9354 24.2162 50.8434 24.0082 51.6354 23.5922C52.4274 23.1762 53.0474 22.6482 53.4954 22.0082V24.0002H56.2554V6.24023H53.4954V12.6242C52.9994 12.0002 52.3314 11.5002 51.4914 11.1242C50.6514 10.7482 49.7994 10.5602 48.9354 10.5602C47.7674 10.5602 46.7074 10.8442 45.7554 11.4122C44.8034 11.9802 44.0514 12.7762 43.4994 13.8002ZM52.9314 15.0002C53.3074 15.6722 53.4954 16.4642 53.4954 17.3762C53.4954 18.2882 53.3074 19.0842 52.9314 19.7642C52.5554 20.4442 52.0634 20.9602 51.4554 21.3122C50.8474 21.6642 50.1914 21.8402 49.4874 21.8402C48.7994 21.8402 48.1474 21.6602 47.5314 21.3002C46.9154 20.9402 46.4194 20.4162 46.0434 19.7282C45.6674 19.0402 45.4794 18.2402 45.4794 17.3282C45.4794 16.4162 45.6674 15.6282 46.0434 14.9642C46.4194 14.3002 46.9114 13.7962 47.5194 13.4522C48.1274 13.1082 48.7834 12.9362 49.4874 12.9362C50.1914 12.9362 50.8474 13.1122 51.4554 13.4642C52.0634 13.8162 52.5554 14.3282 52.9314 15.0002Z" fill="white"/>
<path d="M43.4994 13.8002L43.8515 13.99L43.4994 13.8002ZM53.4954 22.0082H53.8954C53.8954 21.8336 53.7822 21.6792 53.6156 21.6267C53.4491 21.5743 53.2678 21.6358 53.1677 21.7788L53.4954 22.0082ZM53.4954 24.0002H53.0954C53.0954 24.2211 53.2745 24.4002 53.4954 24.4002V24.0002ZM56.2554 24.0002V24.4002C56.4763 24.4002 56.6554 24.2211 56.6554 24.0002H56.2554ZM56.2554 6.24023H56.6554C56.6554 6.01932 56.4763 5.84023 56.2554 5.84023V6.24023ZM53.4954 6.24023V5.84023C53.2745 5.84023 53.0954 6.01932 53.0954 6.24023H53.4954ZM53.4954 12.6242L53.1823 12.8731C53.2881 13.0063 53.4666 13.0579 53.6272 13.0019C53.7878 12.9458 53.8954 12.7943 53.8954 12.6242H53.4954ZM51.4554 21.3122L51.6558 21.6584L51.4554 21.3122ZM46.0434 19.7282L46.3944 19.5364H46.3944L46.0434 19.7282ZM46.0434 14.9642L45.6953 14.7671L45.6953 14.7671L46.0434 14.9642ZM47.5194 13.4522L47.3224 13.1041L47.5194 13.4522ZM51.4554 13.4642L51.6558 13.1181V13.1181L51.4554 13.4642ZM43.0714 17.3282C43.0714 16.057 43.3351 14.9479 43.8515 13.99L43.1473 13.6104C42.5596 14.7006 42.2714 15.9435 42.2714 17.3282H43.0714ZM43.8533 20.7058C43.3351 19.722 43.0714 18.5993 43.0714 17.3282H42.2714C42.2714 18.7132 42.5597 19.9665 43.1455 21.0786L43.8533 20.7058ZM45.9645 22.9993C45.0775 22.4552 44.3739 21.6942 43.8533 20.7058L43.1455 21.0786C43.7289 22.1862 44.5292 23.0573 45.5462 23.6812L45.9645 22.9993ZM48.9114 23.8162C47.8308 23.8162 46.8516 23.5434 45.9645 22.9993L45.5462 23.6812C46.5632 24.3051 47.688 24.6162 48.9114 24.6162V23.8162ZM51.4494 23.2381C50.7226 23.6199 49.88 23.8162 48.9114 23.8162V24.6162C49.9907 24.6162 50.9642 24.3966 51.8214 23.9464L51.4494 23.2381ZM53.1677 21.7788C52.7613 22.3594 52.1931 22.8475 51.4494 23.2381L51.8214 23.9464C52.6616 23.505 53.3335 22.937 53.8231 22.2376L53.1677 21.7788ZM53.8954 24.0002V22.0082H53.0954V24.0002H53.8954ZM56.2554 23.6002H53.4954V24.4002H56.2554V23.6002ZM55.8554 6.24023V24.0002H56.6554V6.24023H55.8554ZM53.4954 6.64023H56.2554V5.84023H53.4954V6.64023ZM53.8954 12.6242V6.24023H53.0954V12.6242H53.8954ZM51.328 11.4893C52.1186 11.8432 52.7319 12.3065 53.1823 12.8731L53.8085 12.3753C53.2669 11.6939 52.5442 11.1573 51.6548 10.7591L51.328 11.4893ZM48.9354 10.9602C49.7394 10.9602 50.536 11.1348 51.328 11.4893L51.6548 10.7591C50.7668 10.3617 49.8593 10.1602 48.9354 10.1602V10.9602ZM45.9603 11.7557C46.847 11.2267 47.8355 10.9602 48.9354 10.9602V10.1602C47.6993 10.1602 46.5678 10.4617 45.5504 11.0687L45.9603 11.7557ZM43.8515 13.99C44.371 13.0263 45.0735 12.2849 45.9603 11.7557L45.5504 11.0687C44.5333 11.6756 43.7318 12.5261 43.1473 13.6104L43.8515 13.99ZM53.8954 17.3762C53.8954 16.4085 53.6955 15.5467 53.2805 14.8049L52.5823 15.1955C52.9192 15.7977 53.0954 16.52 53.0954 17.3762H53.8954ZM53.2814 19.9578C53.6955 19.209 53.8954 18.3441 53.8954 17.3762H53.0954C53.0954 18.2323 52.9193 18.9595 52.5813 19.5707L53.2814 19.9578ZM51.6558 21.6584C52.3331 21.2663 52.8742 20.6944 53.2814 19.9578L52.5813 19.5707C52.2366 20.1941 51.7937 20.6542 51.255 20.9661L51.6558 21.6584ZM49.4874 22.2402C50.2616 22.2402 50.9868 22.0457 51.6558 21.6584L51.255 20.9661C50.708 21.2827 50.1212 21.4402 49.4874 21.4402V22.2402ZM47.3296 21.6456C48.0044 22.04 48.7258 22.2402 49.4874 22.2402V21.4402C48.873 21.4402 48.2903 21.2805 47.7332 20.9549L47.3296 21.6456ZM45.6924 19.9201C46.0997 20.6653 46.6447 21.2453 47.3296 21.6456L47.7332 20.9549C47.1861 20.6351 46.7391 20.1671 46.3944 19.5364L45.6924 19.9201ZM45.0794 17.3282C45.0794 18.2963 45.2793 19.1643 45.6924 19.9201L46.3944 19.5364C46.0554 18.9162 45.8794 18.1842 45.8794 17.3282H45.0794ZM45.6953 14.7671C45.2792 15.502 45.0794 16.3606 45.0794 17.3282H45.8794C45.8794 16.4718 46.0556 15.7545 46.3915 15.1613L45.6953 14.7671ZM47.3224 13.1041C46.6455 13.4871 46.1036 14.046 45.6953 14.7671L46.3915 15.1613C46.7351 14.5544 47.1772 14.1054 47.7164 13.8004L47.3224 13.1041ZM49.4874 12.5362C48.7149 12.5362 47.991 12.7258 47.3224 13.1041L47.7164 13.8004C48.2638 13.4906 48.8519 13.3362 49.4874 13.3362V12.5362ZM51.6558 13.1181C50.9868 12.7307 50.2616 12.5362 49.4874 12.5362V13.3362C50.1212 13.3362 50.708 13.4937 51.255 13.8104L51.6558 13.1181ZM53.2805 14.8049C52.8728 14.0764 52.3319 13.5095 51.6558 13.1181L51.255 13.8104C51.7949 14.123 52.2379 14.5801 52.5823 15.1955L53.2805 14.8049Z" fill="white"/>
<path fill-rule="evenodd" clip-rule="evenodd" d="M60.7284 13.8002C60.1764 14.8242 59.9004 16.0002 59.9004 17.3282C59.9004 18.6562 60.1764 19.8442 60.7284 20.8922C61.2804 21.9402 62.0324 22.7562 62.9844 23.3402C63.9364 23.9242 64.9884 24.2162 66.1404 24.2162C67.1644 24.2162 68.0724 24.0082 68.8644 23.5922C69.6564 23.1762 70.2764 22.6482 70.7244 22.0082V24.0002H73.4844V6.24023H70.7244V12.6242C70.2284 12.0002 69.5604 11.5002 68.7204 11.1242C67.8804 10.7482 67.0284 10.5602 66.1644 10.5602C64.9964 10.5602 63.9364 10.8442 62.9844 11.4122C62.0324 11.9802 61.2804 12.7762 60.7284 13.8002ZM70.1604 15.0002C70.5364 15.6722 70.7244 16.4642 70.7244 17.3762C70.7244 18.2882 70.5364 19.0842 70.1604 19.7642C69.7844 20.4442 69.2924 20.9602 68.6844 21.3122C68.0764 21.6642 67.4204 21.8402 66.7164 21.8402C66.0284 21.8402 65.3764 21.6602 64.7604 21.3002C64.1444 20.9402 63.6484 20.4162 63.2724 19.7282C62.8964 19.0402 62.7084 18.2402 62.7084 17.3282C62.7084 16.4162 62.8964 15.6282 63.2724 14.9642C63.6484 14.3002 64.1404 13.7962 64.7484 13.4522C65.3564 13.1082 66.0124 12.9362 66.7164 12.9362C67.4204 12.9362 68.0764 13.1122 68.6844 13.4642C69.2924 13.8162 69.7844 14.3282 70.1604 15.0002Z" fill="white"/>
<path d="M60.7284 13.8002L61.0805 13.99L60.7284 13.8002ZM70.7244 22.0082H71.1244C71.1244 21.8336 71.0112 21.6792 70.8446 21.6267C70.6781 21.5743 70.4968 21.6358 70.3967 21.7788L70.7244 22.0082ZM70.7244 24.0002H70.3244C70.3244 24.2211 70.5035 24.4002 70.7244 24.4002V24.0002ZM73.4844 24.0002V24.4002C73.7053 24.4002 73.8844 24.2211 73.8844 24.0002H73.4844ZM73.4844 6.24023H73.8844C73.8844 6.01932 73.7053 5.84023 73.4844 5.84023V6.24023ZM70.7244 6.24023V5.84023C70.5035 5.84023 70.3244 6.01932 70.3244 6.24023H70.7244ZM70.7244 12.6242L70.4113 12.8731C70.5171 13.0063 70.6956 13.0579 70.8562 13.0019C71.0168 12.9458 71.1244 12.7943 71.1244 12.6242H70.7244ZM68.6844 21.3122L68.8848 21.6584L68.6844 21.3122ZM63.2724 19.7282L63.6234 19.5364H63.6234L63.2724 19.7282ZM63.2724 14.9642L62.9243 14.7671L62.9243 14.7671L63.2724 14.9642ZM64.7484 13.4522L64.5514 13.1041L64.7484 13.4522ZM68.6844 13.4642L68.8848 13.1181V13.1181L68.6844 13.4642ZM60.3004 17.3282C60.3004 16.057 60.5641 14.9479 61.0805 13.99L60.3763 13.6104C59.7886 14.7006 59.5004 15.9435 59.5004 17.3282H60.3004ZM61.0823 20.7058C60.5641 19.722 60.3004 18.5993 60.3004 17.3282H59.5004C59.5004 18.7132 59.7887 19.9665 60.3745 21.0786L61.0823 20.7058ZM63.1935 22.9993C62.3066 22.4552 61.6029 21.6942 61.0823 20.7058L60.3745 21.0786C60.9579 22.1862 61.7582 23.0573 62.7752 23.6812L63.1935 22.9993ZM66.1404 23.8162C65.0598 23.8162 64.0806 23.5434 63.1935 22.9993L62.7752 23.6812C63.7922 24.3051 64.917 24.6162 66.1404 24.6162V23.8162ZM68.6784 23.2381C67.9516 23.6199 67.109 23.8162 66.1404 23.8162V24.6162C67.2197 24.6162 68.1932 24.3966 69.0504 23.9464L68.6784 23.2381ZM70.3967 21.7788C69.9903 22.3594 69.4221 22.8475 68.6784 23.2381L69.0504 23.9464C69.8906 23.505 70.5625 22.937 71.0521 22.2376L70.3967 21.7788ZM71.1244 24.0002V22.0082H70.3244V24.0002H71.1244ZM73.4844 23.6002H70.7244V24.4002H73.4844V23.6002ZM73.0844 6.24023V24.0002H73.8844V6.24023H73.0844ZM70.7244 6.64023H73.4844V5.84023H70.7244V6.64023ZM71.1244 12.6242V6.24023H70.3244V12.6242H71.1244ZM68.557 11.4893C69.3476 11.8432 69.9609 12.3065 70.4113 12.8731L71.0375 12.3753C70.4959 11.6939 69.7732 11.1573 68.8838 10.7591L68.557 11.4893ZM66.1644 10.9602C66.9684 10.9602 67.765 11.1348 68.557 11.4893L68.8838 10.7591C67.9958 10.3617 67.0883 10.1602 66.1644 10.1602V10.9602ZM63.1893 11.7557C64.076 11.2267 65.0645 10.9602 66.1644 10.9602V10.1602C64.9283 10.1602 63.7968 10.4617 62.7794 11.0687L63.1893 11.7557ZM61.0805 13.99C61.6 13.0263 62.3025 12.2849 63.1893 11.7557L62.7794 11.0687C61.7623 11.6756 60.9608 12.5261 60.3763 13.6104L61.0805 13.99ZM71.1244 17.3762C71.1244 16.4085 70.9245 15.5467 70.5095 14.8049L69.8113 15.1955C70.1483 15.7977 70.3244 16.52 70.3244 17.3762H71.1244ZM70.5104 19.9578C70.9245 19.209 71.1244 18.3441 71.1244 17.3762H70.3244C70.3244 18.2323 70.1483 18.9595 69.8103 19.5707L70.5104 19.9578ZM68.8848 21.6584C69.5621 21.2663 70.1032 20.6944 70.5104 19.9578L69.8103 19.5707C69.4656 20.1941 69.0227 20.6542 68.484 20.9661L68.8848 21.6584ZM66.7164 22.2402C67.4906 22.2402 68.2158 22.0457 68.8848 21.6584L68.484 20.9661C67.937 21.2827 67.3502 21.4402 66.7164 21.4402V22.2402ZM64.5586 21.6456C65.2334 22.04 65.9548 22.2402 66.7164 22.2402V21.4402C66.102 21.4402 65.5193 21.2805 64.9622 20.9549L64.5586 21.6456ZM62.9214 19.9201C63.3287 20.6653 63.8737 21.2453 64.5586 21.6456L64.9622 20.9549C64.4151 20.6351 63.9681 20.1671 63.6234 19.5364L62.9214 19.9201ZM62.3084 17.3282C62.3084 18.2963 62.5083 19.1643 62.9214 19.9201L63.6234 19.5364C63.2844 18.9162 63.1084 18.1842 63.1084 17.3282H62.3084ZM62.9243 14.7671C62.5082 15.502 62.3084 16.3606 62.3084 17.3282H63.1084C63.1084 16.4718 63.2846 15.7545 63.6205 15.1613L62.9243 14.7671ZM64.5514 13.1041C63.8745 13.4871 63.3327 14.046 62.9243 14.7671L63.6205 15.1613C63.9641 14.5544 64.4063 14.1054 64.9454 13.8004L64.5514 13.1041ZM66.7164 12.5362C65.9439 12.5362 65.22 12.7258 64.5514 13.1041L64.9454 13.8004C65.4928 13.4906 66.0809 13.3362 66.7164 13.3362V12.5362ZM68.8848 13.1181C68.2158 12.7307 67.4906 12.5362 66.7164 12.5362V13.3362C67.3502 13.3362 67.937 13.4937 68.484 13.8104L68.8848 13.1181ZM70.5095 14.8049C70.1018 14.0764 69.5609 13.5095 68.8848 13.1181L68.484 13.8104C69.0239 14.123 69.4669 14.5801 69.8113 15.1955L70.5095 14.8049Z" fill="white"/>
<path d="M80.7775 6.24023V24.0002H78.0415V6.24023H80.7775Z" fill="white" stroke="white" stroke-width="0.8" stroke-linejoin="round"/>
<path fill-rule="evenodd" clip-rule="evenodd" d="M97.3589 18.4081C97.4229 18.0081 97.4549 17.5601 97.4549 17.0641C97.4549 15.7841 97.1829 14.6521 96.6389 13.6681C96.0949 12.6841 95.3349 11.9201 94.3589 11.3761C93.3829 10.8321 92.2709 10.5601 91.0229 10.5601C89.7269 10.5601 88.5789 10.8401 87.5789 11.4001C86.5789 11.9601 85.8029 12.7561 85.2509 13.7881C84.6989 14.8201 84.4229 16.0161 84.4229 17.3761C84.4229 18.7361 84.7069 19.9321 85.2749 20.9641C85.8429 21.9961 86.6269 22.7961 87.6269 23.3641C88.6269 23.9321 89.7589 24.2161 91.0229 24.2161C92.5749 24.2161 93.8749 23.8281 94.9229 23.0521C95.9709 22.2761 96.6949 21.2801 97.0949 20.0641H94.1429C93.5349 21.2961 92.4949 21.9121 91.0229 21.9121C89.9989 21.9121 89.1349 21.5921 88.4309 20.9521C87.7269 20.3121 87.3349 19.4641 87.2549 18.4081H97.3589ZM93.5189 13.7761C94.2229 14.3841 94.5829 15.1921 94.5989 16.2001H87.2789C87.4069 15.1761 87.8069 14.3641 88.4789 13.7641C89.1509 13.1641 89.9589 12.8641 90.9029 12.8641C91.9429 12.8641 92.8149 13.1681 93.5189 13.7761Z" fill="white"/>
<path d="M97.3589 18.4081V18.8081C97.5554 18.8081 97.7228 18.6653 97.7538 18.4713L97.3589 18.4081ZM87.5789 11.4001L87.3834 11.0511L87.5789 11.4001ZM85.2749 20.9641L84.9244 21.1569L85.2749 20.9641ZM97.0949 20.0641L97.4748 20.189C97.5149 20.0672 97.4941 19.9335 97.4189 19.8295C97.3437 19.7256 97.2232 19.6641 97.0949 19.6641V20.0641ZM94.1429 20.0641V19.6641C93.9906 19.6641 93.8515 19.7505 93.7842 19.887L94.1429 20.0641ZM87.2549 18.4081V18.0081C87.1435 18.0081 87.0372 18.0545 86.9615 18.1361C86.8858 18.2178 86.8476 18.3273 86.856 18.4383L87.2549 18.4081ZM94.5989 16.2001V16.6001C94.706 16.6001 94.8087 16.557 94.8839 16.4806C94.9591 16.4043 95.0005 16.3009 94.9988 16.1937L94.5989 16.2001ZM87.2789 16.2001L86.8819 16.1504C86.8677 16.2643 86.903 16.3788 86.979 16.4648C87.0549 16.5508 87.1641 16.6001 87.2789 16.6001V16.2001ZM88.4789 13.7641L88.2124 13.4657L88.4789 13.7641ZM97.0549 17.0641C97.0549 17.5434 97.0239 17.9698 96.9639 18.3449L97.7538 18.4713C97.8218 18.0463 97.8549 17.5767 97.8549 17.0641H97.0549ZM96.2888 13.8616C96.7957 14.7786 97.0549 15.8423 97.0549 17.0641H97.8549C97.8549 15.7259 97.57 14.5256 96.9889 13.4745L96.2888 13.8616ZM94.1641 11.7255C95.0743 12.2328 95.7807 12.9426 96.2888 13.8616L96.9889 13.4745C96.409 12.4255 95.5954 11.6073 94.5536 11.0267L94.1641 11.7255ZM91.0229 10.9601C92.2108 10.9601 93.2544 11.2184 94.1641 11.7255L94.5536 11.0267C93.5113 10.4457 92.3309 10.1601 91.0229 10.1601V10.9601ZM87.7743 11.7491C88.7071 11.2267 89.7862 10.9601 91.0229 10.9601V10.1601C89.6675 10.1601 88.4506 10.4534 87.3834 11.0511L87.7743 11.7491ZM85.6036 13.9767C86.1203 13.0106 86.8424 12.2709 87.7743 11.7491L87.3834 11.0511C86.3153 11.6492 85.4854 12.5015 84.8981 13.5994L85.6036 13.9767ZM84.8229 17.3761C84.8229 16.0712 85.0873 14.9419 85.6036 13.9767L84.8981 13.5994C84.3104 14.6982 84.0229 15.961 84.0229 17.3761H84.8229ZM85.6253 20.7712C85.0945 19.8068 84.8229 18.6791 84.8229 17.3761H84.0229C84.0229 18.793 84.3192 20.0573 84.9244 21.1569L85.6253 20.7712ZM87.8244 23.0162C86.8903 22.4857 86.1585 21.7401 85.6253 20.7712L84.9244 21.1569C85.5272 22.2521 86.3634 23.1064 87.4293 23.7119L87.8244 23.0162ZM91.0229 23.8161C89.8211 23.8161 88.7583 23.5467 87.8244 23.0162L87.4293 23.7119C88.4954 24.3174 89.6966 24.6161 91.0229 24.6161V23.8161ZM94.6848 22.7306C93.7181 23.4464 92.5059 23.8161 91.0229 23.8161V24.6161C92.6438 24.6161 94.0316 24.2097 95.1609 23.3735L94.6848 22.7306ZM96.7149 19.9391C96.3412 21.0749 95.6677 22.0028 94.6848 22.7306L95.1609 23.3735C96.274 22.5493 97.0485 21.4852 97.4748 20.189L96.7149 19.9391ZM94.1429 20.4641H97.0949V19.6641H94.1429V20.4641ZM91.0229 22.3121C91.815 22.3121 92.5168 22.146 93.1107 21.7942C93.7062 21.4415 94.1681 20.9168 94.5015 20.2411L93.7842 19.887C93.5097 20.4433 93.1475 20.8426 92.703 21.1059C92.2569 21.3701 91.7027 21.5121 91.0229 21.5121V22.3121ZM88.1618 21.248C88.9453 21.9603 89.9076 22.3121 91.0229 22.3121V21.5121C90.0901 21.5121 89.3244 21.2238 88.6999 20.6561L88.1618 21.248ZM86.856 18.4383C86.9428 19.5837 87.3734 20.5313 88.1618 21.248L88.6999 20.6561C88.0803 20.0928 87.7269 19.3444 87.6537 18.3778L86.856 18.4383ZM97.3589 18.0081H87.2549V18.8081H97.3589V18.0081ZM94.9988 16.1937C94.9812 15.0824 94.5784 14.1626 93.7803 13.4733L93.2574 14.0788C93.8673 14.6055 94.1845 15.3017 94.1989 16.2064L94.9988 16.1937ZM87.2789 16.6001H94.5989V15.8001H87.2789V16.6001ZM88.2124 13.4657C87.4579 14.1394 87.0201 15.0453 86.8819 16.1504L87.6758 16.2497C87.7936 15.3068 88.1558 14.5887 88.7453 14.0624L88.2124 13.4657ZM90.9029 12.4641C89.8657 12.4641 88.9615 12.7969 88.2124 13.4657L88.7453 14.0624C89.3402 13.5312 90.052 13.2641 90.9029 13.2641V12.4641ZM93.7803 13.4733C92.995 12.7951 92.0267 12.4641 90.9029 12.4641V13.2641C91.859 13.2641 92.6347 13.541 93.2574 14.0788L93.7803 13.4733Z" fill="white"/>
<defs>
<filter id="filter0_b_728_1105" x="96.1269" y="-6.87313" width="23.7463" height="23.7463" filterUnits="userSpaceOnUse" color-interpolation-filters="sRGB">
<feFlood flood-opacity="0" result="BackgroundImageFix"/>
<feGaussianBlur in="BackgroundImageFix" stdDeviation="5.43656"/>
<feComposite in2="SourceAlpha" operator="in" result="effect1_backgroundBlur_728_1105"/>
<feBlend mode="normal" in="SourceGraphic" in2="effect1_backgroundBlur_728_1105" result="shape"/>
</filter>
</defs>
</svg>
