<svg width="34" height="34" viewBox="0 0 34 34" fill="none" xmlns="http://www.w3.org/2000/svg">
<rect x="1" y="1" width="32" height="32" rx="1" stroke="black" stroke-linecap="square"/>
<path d="M16.0625 20.0625C16.3333 19.7917 16.6458 19.6562 17 19.6562C17.3542 19.6562 17.6667 19.7917 17.9375 20.0625C18.2083 20.3333 18.3438 20.6458 18.3438 21C18.3438 21.3542 18.2083 21.6667 17.9375 21.9375C17.6667 22.2083 17.3542 22.3438 17 22.3438C16.6458 22.3438 16.3333 22.2083 16.0625 21.9375C15.7917 21.6667 15.6562 21.3542 15.6562 21C15.6562 20.6458 15.7917 20.3333 16.0625 20.0625ZM16.0625 16.0625C16.3333 15.7917 16.6458 15.6562 17 15.6562C17.3542 15.6562 17.6667 15.7917 17.9375 16.0625C18.2083 16.3333 18.3438 16.6458 18.3438 17C18.3438 17.3542 18.2083 17.6667 17.9375 17.9375C17.6667 18.2083 17.3542 18.3438 17 18.3438C16.6458 18.3438 16.3333 18.2083 16.0625 17.9375C15.7917 17.6667 15.6562 17.3542 15.6562 17C15.6562 16.6458 15.7917 16.3333 16.0625 16.0625ZM17.9375 13.9375C17.6667 14.2083 17.3542 14.3438 17 14.3438C16.6458 14.3438 16.3333 14.2083 16.0625 13.9375C15.7917 13.6667 15.6562 13.3542 15.6562 13C15.6562 12.6458 15.7917 12.3333 16.0625 12.0625C16.3333 11.7917 16.6458 11.6562 17 11.6562C17.3542 11.6562 17.6667 11.7917 17.9375 12.0625C18.2083 12.3333 18.3438 12.6458 18.3438 13C18.3438 13.3542 18.2083 13.6667 17.9375 13.9375Z" fill="black"/>
</svg>
