<svg width="34" height="34" viewBox="0 0 34 34" fill="none" xmlns="http://www.w3.org/2000/svg">
<rect x="1" y="1" width="32" height="32" rx="1" stroke="black" stroke-linecap="square"/>
<path d="M13.2188 17.4688C13.8021 18.0521 14.5104 18.3438 15.3438 18.3438C16.1771 18.3438 16.8854 18.0521 17.4688 17.4688C18.0521 16.8854 18.3438 16.1771 18.3438 15.3438C18.3438 14.5104 18.0521 13.8021 17.4688 13.2188C16.8854 12.6354 16.1771 12.3438 15.3438 12.3438C14.5104 12.3438 13.8021 12.6354 13.2188 13.2188C12.6354 13.8021 12.3438 14.5104 12.3438 15.3438C12.3438 16.1771 12.6354 16.8854 13.2188 17.4688ZM19.3438 18.3438L22.6562 21.6562L21.6562 22.6562L18.3438 19.3438V18.8125L18.1562 18.625C17.3646 19.3125 16.4271 19.6562 15.3438 19.6562C14.1354 19.6562 13.1042 19.2396 12.25 18.4062C11.4167 17.5729 11 16.5521 11 15.3438C11 14.1354 11.4167 13.1146 12.25 12.2812C13.1042 11.4271 14.1354 11 15.3438 11C16.5521 11 17.5729 11.4271 18.4062 12.2812C19.2396 13.1146 19.6562 14.1354 19.6562 15.3438C19.6562 15.7812 19.5521 16.2812 19.3438 16.8438C19.1354 17.3854 18.8958 17.8229 18.625 18.1562L18.8125 18.3438H19.3438Z" fill="black"/>
</svg>
